<svg xmlns="http://www.w3.org/2000/svg" width="520" height="250" viewBox="0 0 520 250" role="img" aria-label="GitHub Stats">
  <defs>
    <linearGradient id="card-bg" x1="0" y1="0" x2="1" y2="1">
      <stop offset="0%" stop-color="#282a36"/>
      <stop offset="100%" stop-color="#242631"/>
    </linearGradient>
  </defs>
  <rect x="0.5" y="0.5" width="519" height="249" rx="16" fill="url(#card-bg)" stroke="#44475a"/>
  <text x="28" y="38" fill="#ff79c6" font-size="22" font-family="Segoe UI, Ubuntu, sans-serif" font-weight="700">GitHub Stats</text>
  <rect x="28" y="52" width="54" height="3" rx="1.5" fill="#ff79c6"/>
  <rect x="28" y="70" width="224" height="68" rx="12" fill="#303240" stroke="#44475a"/>
  <circle cx="48" cy="90" r="5" fill="#8be9fd"/>
  <text x="62" y="94" fill="#b9bbc7" font-size="13" font-family="Segoe UI, Ubuntu, sans-serif" font-weight="600">Commits</text>
  <text x="46" y="125" fill="#f8f8f2" font-size="25" font-family="Segoe UI, Ubuntu, sans-serif" font-weight="700">490</text>
  <rect x="268" y="70" width="224" height="68" rx="12" fill="#303240" stroke="#44475a"/>
  <circle cx="288" cy="90" r="5" fill="#bd93f9"/>
  <text x="302" y="94" fill="#b9bbc7" font-size="13" font-family="Segoe UI, Ubuntu, sans-serif" font-weight="600">Pull requests</text>
  <text x="286" y="125" fill="#f8f8f2" font-size="25" font-family="Segoe UI, Ubuntu, sans-serif" font-weight="700">3</text>
  <rect x="28" y="154" width="224" height="68" rx="12" fill="#303240" stroke="#44475a"/>
  <circle cx="48" cy="174" r="5" fill="#ffb86c"/>
  <text x="62" y="178" fill="#b9bbc7" font-size="13" font-family="Segoe UI, Ubuntu, sans-serif" font-weight="600">Issues</text>
  <text x="46" y="209" fill="#f8f8f2" font-size="25" font-family="Segoe UI, Ubuntu, sans-serif" font-weight="700">0</text>
  <rect x="268" y="154" width="224" height="68" rx="12" fill="#303240" stroke="#44475a"/>
  <circle cx="288" cy="174" r="5" fill="#f1fa8c"/>
  <text x="302" y="178" fill="#b9bbc7" font-size="13" font-family="Segoe UI, Ubuntu, sans-serif" font-weight="600">Estrelas</text>
  <text x="286" y="209" fill="#f8f8f2" font-size="25" font-family="Segoe UI, Ubuntu, sans-serif" font-weight="700">0</text>
</svg>