<svg width="350" height="294" xmlns="http://www.w3.org/2000/svg">
  <rect width="350" height="294" rx="8" fill="#282a36"/>
  <text x="20" y="32" fill="#ff79c6" font-size="16" font-family="Segoe UI, Ubuntu, sans-serif" font-weight="600">Linguagens mais utilizadas</text>
  <g transform="translate(20, 50)">
    <text x="0" y="14" fill="#f8f8f2" font-size="13" font-family="Segoe UI, Ubuntu, sans-serif" font-weight="500">JavaScript</text>
    <text x="310" y="14" fill="#a9a9b3" font-size="12" font-family="Segoe UI, Ubuntu, sans-serif" text-anchor="end">52.1%</text>
    <rect x="0" y="19" width="310" height="6" rx="3" fill="#44475a" opacity="0.4"/>
    <rect x="0" y="19" width="161" height="6" rx="3" fill="#f1e05a"/>
  </g>
  <g transform="translate(20, 78)">
    <text x="0" y="14" fill="#f8f8f2" font-size="13" font-family="Segoe UI, Ubuntu, sans-serif" font-weight="500">TypeScript</text>
    <text x="310" y="14" fill="#a9a9b3" font-size="12" font-family="Segoe UI, Ubuntu, sans-serif" text-anchor="end">39.5%</text>
    <rect x="0" y="19" width="310" height="6" rx="3" fill="#44475a" opacity="0.4"/>
    <rect x="0" y="19" width="122" height="6" rx="3" fill="#3178c6"/>
  </g>
  <g transform="translate(20, 106)">
    <text x="0" y="14" fill="#f8f8f2" font-size="13" font-family="Segoe UI, Ubuntu, sans-serif" font-weight="500">HTML</text>
    <text x="310" y="14" fill="#a9a9b3" font-size="12" font-family="Segoe UI, Ubuntu, sans-serif" text-anchor="end">3.4%</text>
    <rect x="0" y="19" width="310" height="6" rx="3" fill="#44475a" opacity="0.4"/>
    <rect x="0" y="19" width="10" height="6" rx="3" fill="#e34c26"/>
  </g>
  <g transform="translate(20, 134)">
    <text x="0" y="14" fill="#f8f8f2" font-size="13" font-family="Segoe UI, Ubuntu, sans-serif" font-weight="500">Python</text>
    <text x="310" y="14" fill="#a9a9b3" font-size="12" font-family="Segoe UI, Ubuntu, sans-serif" text-anchor="end">2.0%</text>
    <rect x="0" y="19" width="310" height="6" rx="3" fill="#44475a" opacity="0.4"/>
    <rect x="0" y="19" width="6" height="6" rx="3" fill="#3572A5"/>
  </g>
  <g transform="translate(20, 162)">
    <text x="0" y="14" fill="#f8f8f2" font-size="13" font-family="Segoe UI, Ubuntu, sans-serif" font-weight="500">Kotlin</text>
    <text x="310" y="14" fill="#a9a9b3" font-size="12" font-family="Segoe UI, Ubuntu, sans-serif" text-anchor="end">1.4%</text>
    <rect x="0" y="19" width="310" height="6" rx="3" fill="#44475a" opacity="0.4"/>
    <rect x="0" y="19" width="4" height="6" rx="3" fill="#A97BFF"/>
  </g>
  <g transform="translate(20, 190)">
    <text x="0" y="14" fill="#f8f8f2" font-size="13" font-family="Segoe UI, Ubuntu, sans-serif" font-weight="500">CSS</text>
    <text x="310" y="14" fill="#a9a9b3" font-size="12" font-family="Segoe UI, Ubuntu, sans-serif" text-anchor="end">1.0%</text>
    <rect x="0" y="19" width="310" height="6" rx="3" fill="#44475a" opacity="0.4"/>
    <rect x="0" y="19" width="3" height="6" rx="3" fill="#663399"/>
  </g>
  <g transform="translate(20, 218)">
    <text x="0" y="14" fill="#f8f8f2" font-size="13" font-family="Segoe UI, Ubuntu, sans-serif" font-weight="500">Java</text>
    <text x="310" y="14" fill="#a9a9b3" font-size="12" font-family="Segoe UI, Ubuntu, sans-serif" text-anchor="end">0.4%</text>
    <rect x="0" y="19" width="310" height="6" rx="3" fill="#44475a" opacity="0.4"/>
    <rect x="0" y="19" width="2" height="6" rx="3" fill="#b07219"/>
  </g>
  <g transform="translate(20, 246)">
    <text x="0" y="14" fill="#f8f8f2" font-size="13" font-family="Segoe UI, Ubuntu, sans-serif" font-weight="500">Batchfile</text>
    <text x="310" y="14" fill="#a9a9b3" font-size="12" font-family="Segoe UI, Ubuntu, sans-serif" text-anchor="end">0.2%</text>
    <rect x="0" y="19" width="310" height="6" rx="3" fill="#44475a" opacity="0.4"/>
    <rect x="0" y="19" width="2" height="6" rx="3" fill="#bd93f9"/>
  </g>
</svg>