<svg xmlns="http://www.w3.org/2000/svg" width="520" height="250" viewBox="0 0 520 250" role="img" aria-label="Top 5 linguagens">
  <defs>
    <linearGradient id="card-bg" x1="0" y1="0" x2="1" y2="1">
      <stop offset="0%" stop-color="#282a36"/>
      <stop offset="100%" stop-color="#242631"/>
    </linearGradient>
  </defs>
  <rect x="0.5" y="0.5" width="519" height="249" rx="16" fill="url(#card-bg)" stroke="#44475a"/>
  <text x="28" y="38" fill="#ff79c6" font-size="22" font-family="Segoe UI, Ubuntu, sans-serif" font-weight="700">Top 5 linguagens</text>
  <rect x="28" y="52" width="54" height="3" rx="1.5" fill="#ff79c6"/>
  <text x="28" y="79" fill="#f8f8f2" font-size="14" font-family="Segoe UI, Ubuntu, sans-serif" font-weight="600">JavaScript</text>
  <text x="492" y="79" fill="#c3c5cf" font-size="13" font-family="Segoe UI, Ubuntu, sans-serif" text-anchor="end">52.1%</text>
  <rect x="28" y="88" width="464" height="8" rx="4" fill="#44475a" opacity="0.62"/>
  <rect x="28" y="88" width="241.79" height="8" rx="4" fill="#f1e05a"/>
  <text x="28" y="114" fill="#f8f8f2" font-size="14" font-family="Segoe UI, Ubuntu, sans-serif" font-weight="600">TypeScript</text>
  <text x="492" y="114" fill="#c3c5cf" font-size="13" font-family="Segoe UI, Ubuntu, sans-serif" text-anchor="end">39.5%</text>
  <rect x="28" y="123" width="464" height="8" rx="4" fill="#44475a" opacity="0.62"/>
  <rect x="28" y="123" width="183.10" height="8" rx="4" fill="#3178c6"/>
  <text x="28" y="149" fill="#f8f8f2" font-size="14" font-family="Segoe UI, Ubuntu, sans-serif" font-weight="600">HTML</text>
  <text x="492" y="149" fill="#c3c5cf" font-size="13" font-family="Segoe UI, Ubuntu, sans-serif" text-anchor="end">3.4%</text>
  <rect x="28" y="158" width="464" height="8" rx="4" fill="#44475a" opacity="0.62"/>
  <rect x="28" y="158" width="15.63" height="8" rx="4" fill="#e34c26"/>
  <text x="28" y="184" fill="#f8f8f2" font-size="14" font-family="Segoe UI, Ubuntu, sans-serif" font-weight="600">Python</text>
  <text x="492" y="184" fill="#c3c5cf" font-size="13" font-family="Segoe UI, Ubuntu, sans-serif" text-anchor="end">2.0%</text>
  <rect x="28" y="193" width="464" height="8" rx="4" fill="#44475a" opacity="0.62"/>
  <rect x="28" y="193" width="9.16" height="8" rx="4" fill="#3572A5"/>
  <text x="28" y="219" fill="#f8f8f2" font-size="14" font-family="Segoe UI, Ubuntu, sans-serif" font-weight="600">Kotlin</text>
  <text x="492" y="219" fill="#c3c5cf" font-size="13" font-family="Segoe UI, Ubuntu, sans-serif" text-anchor="end">1.4%</text>
  <rect x="28" y="228" width="464" height="8" rx="4" fill="#44475a" opacity="0.62"/>
  <rect x="28" y="228" width="6.56" height="8" rx="4" fill="#A97BFF"/>
</svg>